<svg xmlns="http://www.w3.org/2000/svg" xmlns:xlink="http://www.w3.org/1999/xlink" width="500" zoomAndPan="magnify" viewBox="0 0 375 374.999991" height="500" preserveAspectRatio="xMidYMid meet" version="1.0"><defs><clipPath id="a6eba12e9e"><path d="M 3.578125 3.578125 L 371.078125 3.578125 L 371.078125 371.078125 L 3.578125 371.078125 Z M 3.578125 3.578125 " clip-rule="nonzero"/></clipPath></defs><g clip-path="url(#a6eba12e9e)"><path fill="#8d22b8" d="M 119.523438 255.476562 L 119.523438 313.449219 L 177.496094 313.449219 L 177.496094 255.476562 L 260.039062 255.476562 C 274.898438 255.476562 287.847656 249.445312 297.628906 239.734375 C 307.339844 230.023438 313.375 217 313.375 202.140625 L 313.375 114.886719 C 313.375 100.027344 307.339844 87.078125 297.628906 77.292969 C 287.917969 67.582031 274.898438 61.550781 260.039062 61.550781 L 172.859375 61.550781 C 158 61.550781 145.050781 67.582031 135.265625 77.292969 C 125.480469 87.003906 119.523438 100.027344 119.523438 114.886719 L 119.523438 197.429688 L 3.578125 197.429688 L 3.578125 255.402344 L 119.523438 255.402344 Z M 61.550781 197.503906 L 61.550781 114.886719 C 61.550781 84.285156 74.058594 56.476562 93.996094 36.023438 C 114.445312 16.085938 142.253906 3.578125 172.859375 3.578125 L 260.039062 3.578125 C 290.640625 3.578125 318.449219 16.085938 338.902344 36.023438 C 358.914062 56.476562 371.417969 84.285156 371.417969 114.886719 L 371.417969 202.066406 C 371.417969 232.671875 358.914062 260.480469 338.976562 280.929688 C 318.597656 300.867188 290.714844 313.375 260.109375 313.375 L 177.496094 313.375 L 177.496094 371.417969 L 119.523438 371.417969 L 119.523438 313.449219 L 61.550781 313.449219 Z M 234.140625 119.523438 L 198.902344 119.523438 C 193.3125 119.523438 187.792969 121.875 184.042969 125.996094 C 179.847656 129.675781 177.566406 135.265625 177.566406 140.855469 L 177.566406 197.429688 L 234.140625 197.429688 C 239.734375 197.429688 245.25 195.078125 249.003906 190.957031 C 253.195312 187.277344 255.476562 181.6875 255.476562 176.097656 L 255.476562 140.855469 C 255.476562 135.265625 253.121094 129.75 249.003906 125.996094 C 245.25 121.875 239.660156 119.523438 234.140625 119.523438 Z M 234.140625 119.523438 " fill-opacity="1" fill-rule="nonzero"/></g></svg>